<svg xmlns="http://www.w3.org/2000/svg" viewBox="0 0 64 64" x="0px" y="0px">
  <g>
    <path fill="blue" d="M 61 45 H 44 V 41 h 3 a 1 1 0 0 0 1 -1 V 30 a 1 1 0 0 0 -1 -1 H 44 V 19.52 a 0.979 0.979 0 0 0 -0.029 -0.143 a 1 1 0 0 0 -0.043 -0.216 a 117.479 117.479 0 0 0 -0.188 -0.314 l -0.032 -0.033 h 0 A 23.991 23.991 0 1 0 9.813 52.707 h 0 l 0.033 0.032 a 0.94 0.94 0 0 0 0.16 0.1 A 0.784 0.784 0 0 0 10.52 53 H 43 a 1 1 0 0 0 1 -1 V 51 H 60 v 2 H 59 a 1 1 0 0 0 0 2 h 2 a 1 1 0 0 0 1 -1 V 46 A 1 1 0 0 0 61 45 Z H 44 Z Z H 44 Z"/>
    <path fill="green" d="M 61 45 H 44 V 41 h 3 a 1 1 0 0 0 1 -1 V 30 a 1 1 0 0 0 -1 -1 H 44 V 19.52 a 0.979 0.979 0 0 0 -0.029 -0.143 a 1 1 0 0 0 -0.043 -0.216 a 117.479 117.479 0 0 0 -0.188 -0.314 l -0.032 -0.033 h 0 A 23.991 23.991 0 1 0 9.813 52.707 h 0 l 0.033 0.032 a 0.94 0.94 0 0 0 0.16 0.1 A 0.784 0.784 0 0 0 10.52 53 H 43 a 1 1 0 0 0 1 -1 V 51 H 60 v 2 H 59 a 1 1 0 0 0 0 2 h 2 a 1 1 0 0 0 1 -1 V 46 A 1 1 0 0 0 61 45 Z H 44 Z Z H 44 Z"/>
    <path fill="red" d="M24,17A16,16,0,1,0,40,33,16.019,16.019,0,0,0,24,17Zm0" />
    
    <path d="M24,17A16,16,0,1,0,40,33,16.019,16.019,0,0,0,24,17Zm0,30A14,14,0,1,1,38,33,14.015,14.015,0,0,1,24,47Z"/>
    <path d="M61,45H44V41h3a1,1,0,0,0,1-1V30a1,1,0,0,0-1-1H44V19.52a.979.979,0,0,0-.029-.143,1,1,0,0,0-.043-.216,117.479,117.479,0,0,0-.188-.314l-.032-.033h0A23.991,23.991,0,1,0,9.813,52.707h0l.033.032a.94.94,0,0,0,.16.1A.784.784,0,0,0,10.52,53H43a1,1,0,0,0,1-1V51H60v2H59a1,1,0,0,0,0,2h2a1,1,0,0,0,1-1V46A1,1,0,0,0,61,45ZM46,31v8H44V31ZM42,51H10.921A21.986,21.986,0,1,1,42,19.921Zm2-4H60v2H44Z"/>
    <path d="M28,23H20a3,3,0,0,0-3,3V41c0,2.28,3.009,4,7,4s7-1.72,7-4V26A3,3,0,0,0,28,23Zm-8,2h8a1,1,0,0,1,1,1V37H19V26A1,1,0,0,1,20,25Zm4,18c-3.052,0-5-1.185-5-2V39H29v2C29,41.815,27.052,43,24,43Z"/>
    <path d="M24,36a3,3,0,0,0,3-3V29a3,3,0,0,0-6,0v4A3,3,0,0,0,24,36Zm-1-7a1,1,0,0,1,2,0v4a1,1,0,0,1-2,0Z"/>
  </g>
</svg>